<svg xmlns="http://www.w3.org/2000/svg" viewBox="0 0 1440 320"><path fill="#ffffff" fill-opacity="1" d="M0,256L0,160L130.9,160L130.9,64L261.8,64L261.8,224L392.7,224L392.7,32L523.6,32L523.6,288L654.5,288L654.5,224L785.5,224L785.5,128L916.4,128L916.4,256L1047.3,256L1047.3,32L1178.2,32L1178.2,256L1309.1,256L1309.1,160L1440,160L1440,320L1309.1,320L1309.1,320L1178.2,320L1178.2,320L1047.3,320L1047.3,320L916.4,320L916.4,320L785.5,320L785.5,320L654.5,320L654.5,320L523.6,320L523.6,320L392.7,320L392.7,320L261.8,320L261.8,320L130.9,320L130.9,320L0,320L0,320Z"></path></svg>